<svg width="21" height="21" viewBox="0 0 21 21" fill="none" xmlns="http://www.w3.org/2000/svg">
    <path
        d="M17.8062 0H3.53317C2.74925 0.00105828 1.99774 0.312938 1.44343 0.867254C0.88911 1.42157 0.57723 2.17308 0.576172 2.957L0.576172 17.23C0.57723 18.0139 0.88911 18.7654 1.44343 19.3197C1.99774 19.8741 2.74925 20.1859 3.53317 20.187H9.48717V13.051H7.12117V9.5H9.48717V7.1C9.48823 6.15934 9.86238 5.2575 10.5275 4.59235C11.1927 3.9272 12.0945 3.55306 13.0352 3.552H16.6232V7.1H13.0352V9.5H16.6232L16.0322 13.048H13.0322V20.184H17.8062C18.5901 20.1829 19.3416 19.8711 19.8959 19.3167C20.4502 18.7624 20.7621 18.0109 20.7632 17.227V2.957C20.7621 2.17308 20.4502 1.42157 19.8959 0.867254C19.3416 0.312938 18.5901 0.00105828 17.8062 0Z"
        fill="#2E2D27" />
</svg>
