<svg xmlns="http://www.w3.org/2000/svg" width="21" height="20" viewBox="0 0 21 20" fill="none">
    <path
        d="M17.5791 0H3.4971C2.72352 0.00105825 1.98193 0.308829 1.43493 0.855831C0.887931 1.40283 0.58016 2.14442 0.579102 2.918L0.579102 17C0.58016 17.7736 0.887931 18.5152 1.43493 19.0622C1.98193 19.6092 2.72352 19.9169 3.4971 19.918H17.5791C18.3532 19.9177 19.0956 19.6103 19.6432 19.0632C20.1909 18.5161 20.499 17.7741 20.5001 17V2.918C20.499 2.1439 20.1909 1.40186 19.6432 0.854773C19.0956 0.307685 18.3532 0.000264195 17.5791 0ZM10.5791 15.174C9.54016 15.174 8.52454 14.8659 7.66069 14.2887C6.79684 13.7115 6.12355 12.8911 5.72596 11.9312C5.32837 10.9714 5.22435 9.91517 5.42704 8.89619C5.62972 7.87721 6.13002 6.94121 6.86467 6.20657C7.59932 5.47192 8.53531 4.97162 9.55429 4.76893C10.5733 4.56625 11.6295 4.67027 12.5893 5.06786C13.5492 5.46545 14.3696 6.13874 14.9468 7.00259C15.524 7.86644 15.8321 8.88205 15.8321 9.921C15.8305 11.3137 15.2766 12.6489 14.2918 13.6337C13.307 14.6185 11.9718 15.1724 10.5791 15.174ZM16.4151 5.836C16.0688 5.836 15.7302 5.73331 15.4423 5.5409C15.1543 5.3485 14.9299 5.07503 14.7974 4.75508C14.6649 4.43513 14.6302 4.08306 14.6977 3.7434C14.7653 3.40374 14.9321 3.09174 15.177 2.84686C15.4218 2.60197 15.7338 2.43521 16.0735 2.36765C16.4132 2.30008 16.7652 2.33476 17.0852 2.46729C17.4051 2.59982 17.6786 2.82425 17.871 3.1122C18.0634 3.40015 18.1661 3.73868 18.1661 4.085C18.1656 4.54923 17.9809 4.9943 17.6527 5.32256C17.3244 5.65082 16.8793 5.83547 16.4151 5.836Z"
        fill="#2E2D27" />
    <path
        d="M16.4151 3.50195C16.2996 3.50195 16.1867 3.5362 16.0906 3.60037C15.9946 3.66454 15.9198 3.75575 15.8756 3.86246C15.8314 3.96918 15.8198 4.0866 15.8423 4.19988C15.8649 4.31317 15.9205 4.41723 16.0021 4.4989C16.0838 4.58058 16.1879 4.6362 16.3012 4.65873C16.4144 4.68126 16.5319 4.6697 16.6386 4.6255C16.7453 4.58129 16.8365 4.50645 16.9007 4.41041C16.9648 4.31437 16.9991 4.20146 16.9991 4.08595C16.9991 3.93107 16.9376 3.78253 16.828 3.673C16.7185 3.56348 16.57 3.50195 16.4151 3.50195Z"
        fill="#2E2D27" />
    <path
        d="M10.5781 5.83594C9.77017 5.83594 8.98037 6.07552 8.30859 6.52438C7.63682 6.97325 7.11325 7.61125 6.80406 8.35768C6.49488 9.10412 6.41397 9.92547 6.5716 10.7179C6.72922 11.5103 7.11828 12.2382 7.68958 12.8095C8.26087 13.3808 8.98875 13.7698 9.78116 13.9274C10.5736 14.0851 11.3949 14.0042 12.1414 13.695C12.8878 13.3858 13.5258 12.8622 13.9747 12.1904C14.4235 11.5187 14.6631 10.7289 14.6631 9.92094C14.6618 8.83794 14.231 7.79967 13.4652 7.03387C12.6994 6.26808 11.6611 5.83726 10.5781 5.83594Z"
        fill="#2E2D27" />
</svg>
