<svg width="277" height="40" viewBox="0 0 277 40" fill="none" xmlns="http://www.w3.org/2000/svg">
    <path d="M276.231 0.184082H0V39.8161H276.231V0.184082Z" fill="white" />
    <path
        d="M9.47203 37.642C7.52884 36.858 5.84684 35.5407 4.62003 33.842C3.4627 32.153 2.86556 30.1429 2.91303 28.096V26.746C2.91263 26.6605 2.92917 26.5758 2.9617 26.4968C2.99422 26.4177 3.04208 26.3459 3.10252 26.2855C3.16296 26.225 3.23477 26.1772 3.31381 26.1446C3.39285 26.1121 3.47756 26.0956 3.56303 26.096H8.38803C8.47357 26.0953 8.55839 26.1117 8.63756 26.1441C8.71672 26.1765 8.78864 26.2244 8.84913 26.2849C8.90962 26.3454 8.95747 26.4173 8.9899 26.4964C9.02233 26.5756 9.03869 26.6604 9.03803 26.746V27.776C9.03868 28.5968 9.24191 29.4047 9.6297 30.1281C10.0175 30.8515 10.5778 31.468 11.261 31.923C13.0529 33.1156 15.1829 33.6956 17.332 33.576C19.1081 33.7051 20.8731 33.2064 22.319 32.167C22.8591 31.7311 23.2916 31.1768 23.5831 30.547C23.8746 29.9172 24.0173 29.2288 24 28.535C24.0242 27.5917 23.6954 26.6735 23.078 25.96C22.3321 25.1572 21.4398 24.5042 20.449 24.036C19.311 23.458 17.6037 22.735 15.327 21.867C13.1947 21.115 11.1125 20.2279 9.09303 19.211C7.52452 18.3991 6.16167 17.2404 5.10803 15.823C4.0016 14.2679 3.43919 12.3912 3.50803 10.484C3.44935 9.04309 3.73328 7.60884 4.33649 6.29899C4.9397 4.98914 5.84499 3.84104 6.97803 2.94897C9.29069 1.10563 12.3807 0.183966 16.248 0.183966C18.7152 0.135727 21.1642 0.616512 23.43 1.59397C25.3799 2.42967 27.0596 3.79016 28.282 5.52397C29.4493 7.24002 30.0555 9.27591 30.017 11.351V12.272C30.0176 12.3576 30.0011 12.4425 29.9686 12.5217C29.936 12.6009 29.8881 12.6729 29.8275 12.7335C29.767 12.794 29.695 12.842 29.6158 12.8745C29.5366 12.907 29.4517 12.9235 29.366 12.923H24.488C24.4024 12.9235 24.3175 12.907 24.2383 12.8745C24.159 12.842 24.0871 12.794 24.0265 12.7335C23.966 12.6729 23.918 12.6009 23.8855 12.5217C23.853 12.4425 23.8365 12.3576 23.837 12.272V11.672C23.8411 10.8419 23.6551 10.022 23.2934 9.27492C22.9316 8.52786 22.4037 7.8735 21.75 7.36197C20.0983 6.10317 18.0501 5.47804 15.977 5.59997C14.3376 5.50112 12.7106 5.93886 11.342 6.84697C10.7996 7.25462 10.3653 7.78899 10.0771 8.40332C9.78894 9.01765 9.6557 9.69323 9.68903 10.371C9.64812 11.3319 9.95605 12.2752 10.556 13.027C11.2838 13.8236 12.1692 14.4604 13.156 14.897C14.312 15.457 16.101 16.1706 18.523 17.038C20.6205 17.8107 22.6742 18.6973 24.675 19.694C26.2237 20.4999 27.575 21.6385 28.632 23.028C29.771 24.5695 30.3541 26.4515 30.286 28.367C30.3419 29.8517 30.0447 31.3286 29.4188 32.6762C28.793 34.0238 27.8564 35.2037 26.686 36.119C24.282 38.035 21.0024 38.9926 16.847 38.992C14.323 39.0474 11.8143 38.5863 9.47503 37.637"
        fill="#161615" />
    <path
        d="M42.268 37.4522C40.224 36.4009 38.5361 34.7693 37.416 32.7622C36.2482 30.6198 35.6598 28.2097 35.709 25.7702V13.4102C35.6616 10.9932 36.2602 8.60744 37.443 6.49919C38.5801 4.51224 40.2643 2.894 42.295 1.83719C44.5159 0.701817 46.9833 0.133924 49.477 0.184186C51.9887 0.130178 54.4748 0.698028 56.714 1.83719C58.7439 2.89489 60.4275 4.51294 61.565 6.49919C62.7478 8.60752 63.3467 10.9932 63.3 13.4102V25.7702C63.3489 28.2131 62.7503 30.6255 61.565 32.7622C60.4344 34.7608 58.7497 36.3896 56.714 37.4522C54.475 38.5918 51.9888 39.1597 49.477 39.1052C46.9748 39.1537 44.4991 38.5861 42.268 37.4522ZM54.952 31.5702C55.6506 30.8239 56.1927 29.9454 56.5465 28.9864C56.9003 28.0274 57.0586 27.0073 57.012 25.9862V13.3562C57.0616 12.3267 56.905 11.2977 56.5512 10.3297C56.1974 9.36165 55.6537 8.47409 54.952 7.71919C54.2356 7.00686 53.379 6.45113 52.4365 6.08723C51.4941 5.72332 50.4863 5.55917 49.477 5.60519C48.4763 5.56246 47.4775 5.72833 46.5443 6.09226C45.611 6.45619 44.7637 7.01023 44.056 7.71919C43.3548 8.47425 42.8117 9.36193 42.4586 10.33C42.1055 11.2981 41.9496 12.327 42 13.3562V25.9842C41.9531 27.0053 42.1111 28.0254 42.4647 28.9844C42.8184 29.9435 43.3604 30.822 44.059 31.5682C44.7662 32.2771 45.613 32.8313 46.5457 33.1956C47.4784 33.5598 48.4766 33.7262 49.477 33.6842C50.4863 33.7302 51.4941 33.5661 52.4365 33.2021C53.379 32.8382 54.2356 32.2825 54.952 31.5702Z"
        fill="#161615" />
    <path
        d="M70.481 38.3742C70.4194 38.3146 70.3707 38.2428 70.338 38.1635C70.3054 38.0842 70.2893 37.999 70.291 37.9132V1.26925C70.2894 1.18349 70.3054 1.09832 70.3381 1.01902C70.3708 0.939715 70.4195 0.867976 70.481 0.808251C70.5408 0.746831 70.6126 0.698294 70.6919 0.66562C70.7712 0.632946 70.8563 0.616826 70.942 0.618251H75.929C76.0146 0.617853 76.0993 0.634427 76.1785 0.667014C76.2576 0.699601 76.3294 0.747554 76.3899 0.808098C76.4503 0.868641 76.4982 0.940573 76.5306 1.01973C76.5631 1.09889 76.5795 1.1837 76.579 1.26925V32.8693C76.5736 32.9061 76.5769 32.9437 76.5887 32.979C76.6004 33.0143 76.6202 33.0464 76.6465 33.0728C76.6728 33.0991 76.7049 33.1189 76.7403 33.1306C76.7756 33.1423 76.8132 33.1456 76.85 33.1403H95.01C95.0956 33.1396 95.1804 33.1559 95.2595 33.1884C95.3387 33.2208 95.4106 33.2687 95.4711 33.3291C95.5316 33.3896 95.5795 33.4616 95.6119 33.5407C95.6443 33.6199 95.6607 33.7047 95.66 33.7902V37.9103C95.6607 37.9958 95.6443 38.0806 95.6119 38.1598C95.5795 38.2389 95.5316 38.3109 95.4711 38.3714C95.4106 38.4318 95.3387 38.4797 95.2595 38.5121C95.1804 38.5446 95.0956 38.5609 95.01 38.5602H70.942C70.8563 38.5621 70.7711 38.5463 70.6918 38.5138C70.6125 38.4812 70.5408 38.4327 70.481 38.3713"
        fill="#161615" />
    <path
        d="M107.424 37.4253C105.423 36.4334 103.755 34.8792 102.624 32.9533C101.458 30.9159 100.868 28.6 100.917 26.2533V1.26926C100.915 1.1835 100.931 1.09832 100.964 1.01902C100.997 0.93972 101.045 0.867981 101.107 0.808256C101.167 0.746817 101.238 0.698257 101.317 0.665576C101.396 0.632896 101.481 0.616791 101.567 0.618256H106.555C106.64 0.618124 106.725 0.634879 106.804 0.667561C106.883 0.700242 106.955 0.748205 107.015 0.808696C107.076 0.869186 107.123 0.941012 107.156 1.02005C107.189 1.09909 107.205 1.18378 107.205 1.26926V26.3693C107.168 27.3269 107.326 28.2821 107.671 29.1763C108.016 30.0705 108.54 30.8848 109.211 31.5693C110.679 32.8615 112.567 33.5743 114.523 33.5743C116.479 33.5743 118.367 32.8615 119.835 31.5693C120.506 30.8846 121.029 30.0703 121.374 29.1762C121.719 28.2821 121.878 27.3269 121.841 26.3693V1.26926C121.839 1.1835 121.855 1.09832 121.888 1.01902C121.921 0.93972 121.969 0.867981 122.031 0.808256C122.091 0.746817 122.162 0.698257 122.241 0.665576C122.32 0.632896 122.405 0.616791 122.491 0.618256H127.479C127.564 0.618124 127.649 0.634879 127.728 0.667561C127.807 0.700242 127.879 0.748205 127.939 0.808696C128 0.869186 128.047 0.941012 128.08 1.02005C128.113 1.09909 128.129 1.18378 128.129 1.26926V26.2583C128.177 28.6015 127.597 30.915 126.449 32.9583C125.334 34.8866 123.674 36.4424 121.678 37.4303C119.444 38.4658 117.012 39.0023 114.55 39.0023C112.088 39.0023 109.656 38.4658 107.422 37.4303"
        fill="#161615" />
    <path
        d="M161.115 0.808244C161.176 0.868113 161.225 0.939879 161.258 1.01915C161.29 1.09842 161.306 1.18352 161.305 1.26924V5.44324C161.305 5.52872 161.288 5.61339 161.256 5.69238C161.223 5.77136 161.175 5.84311 161.115 5.90351C161.054 5.96391 160.982 6.01176 160.903 6.04432C160.824 6.07688 160.739 6.09351 160.654 6.09324H150.68C150.643 6.08809 150.606 6.09154 150.57 6.10333C150.535 6.11513 150.503 6.13494 150.477 6.16121C150.451 6.18749 150.431 6.2195 150.419 6.25473C150.407 6.28996 150.404 6.32745 150.409 6.36424V37.9132C150.409 37.9988 150.393 38.0836 150.36 38.1627C150.328 38.2418 150.28 38.3137 150.219 38.3741C150.159 38.4346 150.087 38.4824 150.008 38.5149C149.928 38.5473 149.844 38.5638 149.758 38.5632H144.771C144.686 38.5636 144.601 38.5471 144.522 38.5146C144.443 38.482 144.371 38.4342 144.31 38.3737C144.25 38.3133 144.202 38.2415 144.17 38.1625C144.137 38.0834 144.121 37.9987 144.121 37.9132V6.36424C144.126 6.32745 144.123 6.28996 144.111 6.25473C144.099 6.2195 144.079 6.18749 144.053 6.16121C144.027 6.13494 143.995 6.11513 143.96 6.10333C143.924 6.09154 143.887 6.08809 143.85 6.09324H134.25C134.165 6.09364 134.08 6.0771 134.001 6.04457C133.922 6.01205 133.85 5.96419 133.789 5.90375C133.729 5.84331 133.681 5.7715 133.649 5.69246C133.616 5.61342 133.6 5.52871 133.6 5.44324V1.26924C133.599 1.18369 133.616 1.09888 133.648 1.01972C133.681 0.940566 133.729 0.868634 133.789 0.808091C133.85 0.747547 133.921 0.699594 134.001 0.667007C134.08 0.63442 134.164 0.617846 134.25 0.618244H160.65C160.736 0.616878 160.821 0.633025 160.9 0.665695C160.979 0.698366 161.051 0.746872 161.111 0.808244"
        fill="#161615" />
    <path
        d="M192.609 5.84927C192.549 5.91084 192.478 5.95947 192.398 5.99215C192.319 6.02484 192.234 6.04088 192.148 6.03927H173.663C173.626 6.03407 173.589 6.03751 173.554 6.0493C173.518 6.0611 173.486 6.08093 173.46 6.10723C173.434 6.13353 173.414 6.16557 173.403 6.20081C173.391 6.23606 173.388 6.27353 173.393 6.31027V16.4463C173.387 16.4831 173.391 16.5207 173.402 16.5561C173.414 16.5914 173.433 16.6236 173.46 16.65C173.486 16.6764 173.518 16.6964 173.553 16.7082C173.589 16.7201 173.626 16.7235 173.663 16.7183H186.077C186.162 16.7179 186.247 16.7344 186.326 16.7669C186.405 16.7995 186.477 16.8473 186.537 16.9078C186.598 16.9682 186.646 17.04 186.678 17.1191C186.711 17.1981 186.727 17.2828 186.727 17.3683V21.4843C186.728 21.5698 186.711 21.6546 186.679 21.7338C186.646 21.813 186.599 21.8849 186.538 21.9454C186.478 22.0059 186.406 22.0537 186.326 22.0862C186.247 22.1186 186.163 22.1349 186.077 22.1343H173.663C173.626 22.1291 173.589 22.1325 173.554 22.1443C173.518 22.1561 173.486 22.1759 173.46 22.2022C173.434 22.2285 173.414 22.2606 173.403 22.2958C173.391 22.3311 173.388 22.3685 173.393 22.4053V32.8713C173.387 32.9081 173.391 32.9457 173.402 32.9811C173.414 33.0164 173.433 33.0486 173.46 33.075C173.486 33.1014 173.518 33.1214 173.553 33.1332C173.589 33.1451 173.626 33.1485 173.663 33.1433H192.148C192.234 33.1427 192.318 33.1592 192.397 33.1917C192.477 33.2241 192.549 33.272 192.609 33.3324C192.67 33.3929 192.718 33.4647 192.75 33.5438C192.783 33.6229 192.799 33.7077 192.799 33.7933V37.9133C192.799 37.9988 192.783 38.0836 192.75 38.1627C192.718 38.2418 192.67 38.3137 192.609 38.3741C192.549 38.4346 192.477 38.4824 192.397 38.5149C192.318 38.5474 192.234 38.5638 192.148 38.5633H167.755C167.669 38.5638 167.585 38.5474 167.505 38.5149C167.426 38.4824 167.354 38.4346 167.294 38.3741C167.233 38.3137 167.185 38.2418 167.153 38.1627C167.12 38.0836 167.104 37.9988 167.104 37.9133V1.26827C167.103 1.18268 167.119 1.0977 167.151 1.01858C167.184 0.939459 167.233 0.867883 167.294 0.808273C167.354 0.74671 167.425 0.698078 167.505 0.665394C167.584 0.632709 167.669 0.616671 167.755 0.618273H192.148C192.234 0.616671 192.319 0.632709 192.398 0.665394C192.478 0.698078 192.549 0.74671 192.609 0.808273C192.67 0.867883 192.719 0.939459 192.752 1.01858C192.784 1.0977 192.8 1.18268 192.799 1.26827V5.38427C192.801 5.47004 192.785 5.55523 192.752 5.63454C192.719 5.71385 192.671 5.78558 192.609 5.84527"
        fill="#161615" />
    <path
        d="M219.74 38.0751L212.584 22.4631C212.558 22.3986 212.513 22.3435 212.455 22.3048C212.397 22.2661 212.329 22.2457 212.259 22.2461H205.754C205.717 22.2409 205.68 22.2444 205.644 22.2562C205.609 22.268 205.577 22.2878 205.551 22.314C205.525 22.3403 205.505 22.3723 205.493 22.4076C205.481 22.4428 205.478 22.4803 205.483 22.5171V37.9171C205.483 38.0026 205.467 38.0872 205.434 38.1663C205.402 38.2453 205.354 38.3171 205.293 38.3776C205.233 38.4381 205.161 38.4861 205.082 38.5188C205.003 38.5514 204.918 38.5682 204.833 38.5681H199.845C199.76 38.5682 199.675 38.5514 199.596 38.5188C199.517 38.4861 199.445 38.4381 199.385 38.3776C199.324 38.3171 199.276 38.2453 199.244 38.1663C199.211 38.0872 199.195 38.0026 199.195 37.9171V1.26807C199.193 1.18231 199.209 1.09714 199.242 1.01784C199.275 0.938537 199.323 0.866797 199.385 0.807072C199.445 0.745633 199.516 0.697073 199.595 0.664393C199.674 0.631713 199.759 0.615607 199.845 0.617072H214.753C216.79 0.5771 218.803 1.05285 220.607 2.00007C222.275 2.89114 223.649 4.24557 224.564 5.90007C225.526 7.67032 226.011 9.65989 225.973 11.6741C226.04 13.9496 225.364 16.185 224.049 18.0431C222.727 19.8238 220.848 21.1117 218.71 21.7021C218.675 21.7015 218.641 21.7116 218.612 21.7308C218.583 21.7501 218.56 21.7777 218.547 21.8101C218.529 21.8437 218.52 21.8811 218.52 21.9191C218.52 21.9571 218.529 21.9945 218.547 22.0281L226.19 37.8041C226.248 37.9038 226.285 38.0144 226.299 38.1291C226.299 38.4191 226.099 38.5631 225.699 38.5631H220.499C220.337 38.5722 220.177 38.5299 220.041 38.4422C219.905 38.3545 219.799 38.226 219.74 38.0751ZM205.483 6.30907V17.0961C205.478 17.1329 205.481 17.1705 205.493 17.2059C205.504 17.2413 205.524 17.2734 205.55 17.2998C205.577 17.3262 205.609 17.3461 205.644 17.358C205.68 17.3698 205.717 17.3733 205.754 17.3681H213.885C214.653 17.4019 215.419 17.2827 216.14 17.0174C216.861 16.7522 217.522 16.3462 218.085 15.8231C218.622 15.2899 219.042 14.6504 219.317 13.9456C219.593 13.2408 219.718 12.4861 219.685 11.7301C219.716 10.9702 219.59 10.212 219.315 9.50305C219.04 8.79409 218.621 8.14964 218.085 7.61007C217.526 7.0793 216.867 6.66654 216.145 6.39644C215.423 6.12635 214.655 6.00447 213.885 6.03807H205.754C205.717 6.03291 205.68 6.03637 205.644 6.04816C205.609 6.05996 205.577 6.07977 205.551 6.10604C205.525 6.13231 205.505 6.16433 205.493 6.19956C205.481 6.23479 205.478 6.27228 205.483 6.30907Z"
        fill="#161615" />
    <path d="M149.958 14.0894H144.645V37.8064H149.958V14.0894Z" fill="#7B3483" />
    <path d="M149.958 14.0894H144.645V37.8064H149.958V14.0894Z" stroke="#161615" stroke-width="2" stroke-linecap="round"
        stroke-linejoin="round" />
    <path d="M76.114 28.6592H70.801V37.6102H76.114V28.6592Z" fill="#C22C3E" />
    <path d="M76.114 28.6592H70.801V37.6102H76.114V28.6592Z" stroke="#161615" stroke-width="2" stroke-linecap="round"
        stroke-linejoin="round" />
    <path d="M186.744 16.3394H168.34V22.9514H186.744V16.3394Z" fill="#1C5BA7" />
    <path d="M186.744 16.3394H168.34V22.9514H186.744V16.3394Z" stroke="#161615" stroke-width="2" stroke-linecap="round"
        stroke-linejoin="round" />
    <path d="M217.701 15.8682H204.609V24.0232H217.701V15.8682Z" fill="#41A46C" />
    <path d="M217.701 15.8682H204.609V24.0232H217.701V15.8682Z" stroke="#161615" stroke-width="2" stroke-linecap="round"
        stroke-linejoin="round" />
    <path d="M9.951 25.1841H1V34.1351H9.951V25.1841Z" fill="#EE7838" />
    <path d="M9.951 25.1841H1V34.1351H9.951V25.1841Z" stroke="#161615" stroke-width="2" stroke-linecap="round"
        stroke-linejoin="round" />
    <path d="M106.282 1.56396H102.141V10.515H106.282V1.56396Z" fill="white" />
    <path d="M106.282 1.56396H102.141V10.515H106.282V1.56396Z" stroke="#161615" stroke-width="2" stroke-linecap="round"
        stroke-linejoin="round" />
</svg>
