<?xml version="1.0" encoding="UTF-8"?><svg id="Livello_1" xmlns="http://www.w3.org/2000/svg" viewBox="0 0 399.95 141.41"><defs><style>.cls-1{fill:#1d1d1b;stroke-width:0px;}</style></defs><path class="cls-1" d="m68.31,44.94c-1.11,0-2.38.11-2.96.32l-12.04,32.64h-25.86c-.26.53-.37,1.21-.37,2.11s.11,1.64.37,2.17h27.67s0-.02.01-.03c.78-.06,1.32-.2,1.72-.39l7.87-22.34c1.27-3.59,2.59-7.66,3.38-11.36h.21c.84,3.86,2.01,7.55,3.38,11.41l7.92,22.29c.53.26,1.32.42,2.59.42,1.16,0,2.01-.16,2.43-.42l-13.36-36.5c-.58-.21-1.85-.32-2.96-.32Z"/><path class="cls-1" d="m195.01,44.94c-1.11,0-2.38.11-2.96.32l-13.47,36.5c.42.26,1.21.42,2.38.42,1.27,0,2.06-.16,2.59-.42l7.87-22.34c1.27-3.59,2.59-7.66,3.38-11.36h.21c.84,3.86,2.01,7.55,3.38,11.41l7.92,22.29c.53.26,1.32.42,2.59.42,1.16,0,2.01-.16,2.43-.42l-13.36-36.5c-.58-.21-1.85-.32-2.96-.32Z"/><path class="cls-1" d="m93.35,53.66c0-3.12,2.38-5.18,7.08-5.18,3.64,0,7.02,1.27,9.72,3.27.26-1.64-.21-3.91-.95-5.12-2.53-1.69-5.6-2.48-9.03-2.48-7.29,0-11.67,3.64-11.67,10.14,0,12.99,18.7,8.5,18.7,18.38,0,3.8-2.48,6.23-8.29,6.23-3.96,0-8.45-1.16-11.46-3.12-.21,1.58.11,3.8.95,5.12,2.53,1.43,6.29,2.38,10.46,2.38,7.08,0,13.15-2.75,13.15-11.25,0-13.26-18.64-9.19-18.64-18.38Z"/><path class="cls-1" d="m114.26,45.37c-.26.53-.37,1.21-.37,2.11s.11,1.64.37,2.17h11.46v60.71c.48.26,1.27.37,2.43.37s1.9-.11,2.38-.37v-60.71h11.41c.26-.53.37-1.27.37-2.17s-.11-1.58-.37-2.11h-27.68Z"/><path class="cls-1" d="m173.99,56.51c0-8.13-5.86-11.67-15.63-11.67-3.43,0-6.81.26-9.72.85v36.13c.48.26,1.27.37,2.43.37s1.9-.11,2.38-.37v-14c1.43.21,4.54.42,6.44.42.79,0,1.95-.05,2.38-.11l8.45,13.63c.74.32,1.64.42,3.17.42,1.16,0,2.11-.11,2.53-.42l-9.4-14.74c4.22-1.53,6.97-4.97,6.97-10.51Zm-14.79,7.55c-1.9,0-4.33-.21-5.76-.48v-14.1c1.58-.32,3.27-.42,4.96-.42,6.55,0,10.67,2.22,10.67,7.76,0,5.18-3.54,7.24-9.88,7.24Z"/><path class="cls-1" d="m241.96,17.08v60.18h-.21c-.79-2.8-2.06-5.6-3.59-8.08l-14.37-23.61c-.69-.21-1.53-.37-3.01-.37s-2.43.16-3.17.37v36.23c.48.26,1.16.37,2.27.37s1.74-.11,2.22-.37v-32.01h.21c.74,2.59,1.9,5.39,3.22,7.5l15,24.66c.58.21,1.48.37,2.9.37,1.53,0,2.38-.16,3.01-.37V17.08c-.48-.26-1.16-.37-2.27-.37s-1.74.11-2.22.37Z"/><path class="cls-1" d="m271.37,44.15c-9.77,0-16.58,7.18-16.58,19.17,0,13.26,6.02,19.96,16.58,19.96s16.58-7.08,16.58-19.96-6.71-19.17-16.58-19.17Zm0,34.75c-7.45,0-11.62-5.7-11.62-15.58,0-9.19,4.01-14.84,11.62-14.84,7.08,0,11.62,5.65,11.62,14.84,0,9.77-4.07,15.58-11.62,15.58Z"/><path class="cls-1" d="m291.12,45.37c-.26.53-.37,1.21-.37,2.11s.11,1.64.37,2.17h11.46v32.16c.48.26,1.27.37,2.43.37s1.9-.11,2.38-.37v-32.16h11.41c.26-.53.37-1.27.37-2.17s-.11-1.58-.37-2.11h-27.67Z"/><path class="cls-1" d="m366.75,46.26c0-.9-.11-1.58-.37-2.11h-27.67s0,.01,0,.02c-.12,0-.24-.02-.36-.02-9.77,0-16.58,7.18-16.58,19.17,0,13.26,6.02,19.96,16.58,19.96s16.58-7.08,16.58-19.96c0-6.66-1.93-11.67-5.23-14.89h16.69c.26-.53.37-1.27.37-2.17Zm-28.42,32.64c-7.45,0-11.62-5.7-11.62-15.58,0-9.19,4.01-14.84,11.62-14.84,7.08,0,11.62,5.65,11.62,14.84,0,9.77-4.07,15.58-11.62,15.58Z"/><path class="cls-1" d="m35.51,110.06c-1.23.37-2.76.7-3.96.7-3.91,0-5.49-2.92-5.49-7.23s1.96-7.31,6.16-7.31c1.15,0,2.25.27,3.16.64l.32.32v1.18l-.29.29c-1.18-.4-2.14-.59-3.27-.59-2.68,0-3.88,2.03-3.88,5.17,0,3.86.99,5.68,3.51,5.68,1.05,0,2.73-.24,3.7-.64l.32.19v1.21l-.27.4Z"/><path class="cls-1" d="m45.58,99l-.4.08c-.21-.24-.86-1.04-1.15-1.04-1.21,0-2.17,1.93-2.81,3.3v8.78l-.37.37h-1.39l-.38-.37v-10.45c-.27-1.34-.56-2.12-.8-2.84l.27-.45,1.31-.35.46.13c.27.7.62,1.5.8,2.76l.06-.1c.48-1.02,1.26-2.68,3.27-2.68.4,0,1.26.29,1.85.48l.21.43-.91,1.95Z"/><path class="cls-1" d="m57.66,102.91l-.27.27h-8.11v.48c0,3.61,1.2,5.25,3.61,5.25,1.31,0,2.76-.27,4.23-.75l.32.19v1.2l-.27.4c-1.39.51-2.65.8-4.42.8-3.3,0-5.73-1.98-5.73-6.83,0-3.85,1.36-7.71,5.78-7.71,2.79,0,4.96,1.82,4.96,4.72,0,.75,0,1.36-.11,1.98Zm-1.93-1.85c0-1.79-1.21-3-3.03-3-2.28,0-3.13,1.69-3.38,3.37h6.4v-.37Z"/><path class="cls-1" d="m70.87,110.6l-1.31.35-.45-.13c-.24-.72-.59-1.66-.83-2.81-.64.91-3.08,2.76-5.25,2.76-1.5,0-2.87-1.71-2.87-3.91,0-2.76,1.44-3.72,5.06-3.72h2.97v-2.52c0-1.93-.64-2.57-2.28-2.57-2.01,0-3.3.32-4.23.51l-.35-.29v-1.18l.27-.32c1.05-.32,2.55-.54,4.5-.54,2.92,0,4.23,1.21,4.23,4.07v7.02c.27,1.23.51,1.98.8,2.84l-.27.46Zm-2.68-5.87h-3.22c-2.12,0-2.62.59-2.62,2.01,0,1.26.56,2.23,1.1,2.23,1.2,0,3.88-1.5,4.74-2.73v-1.5Z"/><path class="cls-1" d="m80.91,110.11c-.83.37-1.9.64-2.71.64-2.33,0-3.16-.7-3.16-3.57v-8.92h-1.55l-.35-.35v-1.1l.35-.35h1.55l.32-1.71.24-.37,1.15-.48.43.1v2.47h2.89l.35.35v1.1l-.35.35h-2.89v8.76c0,1.37.13,1.88,1.17,1.88.72,0,1.58-.19,2.49-.59l.4.29v1.15l-.35.35Z"/><path class="cls-1" d="m86.11,93.37h-2.25l-.37-.43v-1.77l.37-.43h2.25l.37.43v1.77l-.37.43Zm-.43,17.11h-1.39l-.38-.37v-13.26l.38-.37h1.39l.37.37v13.26l-.37.37Z"/><path class="cls-1" d="m95.54,110.11l-.37.37h-1.66l-.37-.37-4.72-12.94.22-.48,1.42-.48.48.24,3.88,11.36,4.2-11.38.48-.21,1.31.54.22.48-5.09,12.88Z"/><path class="cls-1" d="m112.36,102.91l-.27.27h-8.11v.48c0,3.61,1.2,5.25,3.61,5.25,1.31,0,2.76-.27,4.23-.75l.32.19v1.2l-.27.4c-1.39.51-2.65.8-4.42.8-3.3,0-5.73-1.98-5.73-6.83,0-3.85,1.36-7.71,5.78-7.71,2.79,0,4.96,1.82,4.96,4.72,0,.75,0,1.36-.11,1.98Zm-1.93-1.85c0-1.79-1.21-3-3.03-3-2.28,0-3.13,1.69-3.38,3.37h6.4v-.37Z"/><path class="cls-1" d="m147.81,110.11c-.83.37-1.9.64-2.71.64-2.33,0-3.16-.7-3.16-3.57v-8.92h-1.55l-.35-.35v-1.1l.35-.35h1.55l.32-1.71.24-.37,1.15-.48.43.1v2.47h2.89l.35.35v1.1l-.35.35h-2.89v8.76c0,1.37.13,1.88,1.17,1.88.72,0,1.58-.19,2.49-.59l.4.29v1.15l-.35.35Z"/><path class="cls-1" d="m160.43,102.91l-.27.27h-8.11v.48c0,3.61,1.2,5.25,3.61,5.25,1.31,0,2.76-.27,4.23-.75l.32.19v1.2l-.27.4c-1.39.51-2.65.8-4.42.8-3.3,0-5.73-1.98-5.73-6.83,0-3.85,1.36-7.71,5.78-7.71,2.79,0,4.96,1.82,4.96,4.72,0,.75,0,1.36-.11,1.98Zm-1.93-1.85c0-1.79-1.21-3-3.03-3-2.28,0-3.13,1.69-3.38,3.37h6.4v-.37Z"/><path class="cls-1" d="m172.43,110.06c-1.23.37-2.76.7-3.96.7-3.91,0-5.49-2.92-5.49-7.23s1.96-7.31,6.16-7.31c1.15,0,2.25.27,3.16.64l.32.32v1.18l-.29.29c-1.18-.4-2.14-.59-3.27-.59-2.68,0-3.88,2.03-3.88,5.17,0,3.86.99,5.68,3.51,5.68,1.05,0,2.73-.24,3.7-.64l.32.19v1.21l-.27.4Z"/><path class="cls-1" d="m186.14,110.49h-1.39l-.37-.37v-9.11c0-1.88-.37-2.95-1.53-2.95s-3.72,1.53-4.58,2.76v9.3l-.37.37h-1.39l-.37-.37v-19.34l.37-.37h1.39l.37.37v7.39l-.16.78c.62-.75,3.13-2.73,5.25-2.73,2.44,0,3.16,1.77,3.16,4.61v9.3l-.37.37Z"/><path class="cls-1" d="m200.9,110.49h-1.39l-.37-.37v-9.11c0-1.88-.38-2.95-1.53-2.95s-3.72,1.53-4.58,2.76v9.3l-.37.37h-1.39l-.38-.37v-10.45c-.27-1.26-.51-1.93-.8-2.84l.27-.45,1.31-.35.46.13c.27.72.62,1.53.83,2.68.67-.72,3.08-2.63,5.17-2.63,2.43,0,3.16,1.77,3.16,4.61v9.3l-.37.37Z"/><path class="cls-1" d="m210.75,110.76c-4.56,0-6.13-3.4-6.13-7.23s1.61-7.31,6.24-7.31,6.14,3.4,6.14,7.23-1.61,7.32-6.24,7.32Zm.08-12.7c-3.08,0-4.02,2.38-4.02,5.38s.89,5.46,3.96,5.46,4.02-2.33,4.02-5.41-.89-5.44-3.96-5.44Z"/><path class="cls-1" d="m225.59,110.17c-.59.35-1.42.59-2.01.59-2.33,0-3.11-.78-3.11-3.65v-16.34l.37-.37h1.39l.37.37v16.04c0,1.55.22,2.09,1.18,2.09.62,0,1.18-.19,1.74-.48l.35.22v1.12l-.29.4Z"/><path class="cls-1" d="m233.71,110.76c-4.56,0-6.13-3.4-6.13-7.23s1.61-7.31,6.24-7.31,6.14,3.4,6.14,7.23-1.61,7.32-6.24,7.32Zm.08-12.7c-3.08,0-4.02,2.38-4.02,5.38s.89,5.46,3.96,5.46,4.02-2.33,4.02-5.41-.89-5.44-3.96-5.44Z"/><path class="cls-1" d="m253.68,97.76c-.54.16-1.12.27-1.9.27h-.27c.56.75.78,2.04.78,3.27,0,3.05-1.85,4.79-5.01,4.79-.59,0-1.07-.05-1.58-.19-.43.45-.72,1.02-.72,1.47,0,.48.32.83,1.1.83h3.56c2.2,0,4.2.48,4.2,3.05,0,4.45-4.71,4.77-7.5,4.77-3.03,0-4.58-.97-4.58-3.32,0-1.04.8-2.35,2.33-2.95-.56-.27-1.02-1.02-1.02-1.79s.64-1.74,1.37-2.49c-1.37-.72-2.01-2.17-2.01-4.07,0-3.16,1.79-5.2,4.95-5.2.51,0,.99.06,1.42.14h.48c1.55,0,2.73-.14,4.26-.27l.37.37v.91l-.24.4Zm-4.26,12.32h-3.7c-1.12.54-1.93,1.42-1.93,2.36,0,1.58,1.13,1.9,2.7,1.9,3,0,5.36-.56,5.36-2.68,0-1.18-.67-1.58-2.43-1.58Zm-2.06-12.21c-2.09,0-2.92,1.26-2.92,3.51,0,2.12.8,3.03,2.89,3.03s2.95-.86,2.95-3.05-.83-3.48-2.92-3.48Z"/><path class="cls-1" d="m262.04,111.29c-1.29,3.24-2.23,4.9-4.2,4.9-.97,0-2.06-.56-2.78-.99l-.19-.4.43-1.29.45-.1c.72.48,1.39.8,2.14.8,1.07,0,1.9-2.43,2.31-3.72l-4.98-13.31.21-.48,1.42-.48.48.24,3.99,11.19,4.26-11.19.48-.24,1.31.56.22.48-5.54,14.04Z"/><path class="cls-1" d="m294.42,110.49h-1.39l-.38-.37v-9.11c0-1.98-.45-2.95-1.61-2.95-.97,0-3.4,1.42-4.34,2.62v9.43l-.37.37h-1.4l-.37-.37v-9.11c0-2.2-.54-2.95-1.61-2.95s-3.59,1.53-4.45,2.76v9.3l-.37.37h-1.39l-.38-.37v-10.45c-.29-1.18-.45-1.9-.8-2.84l.27-.45,1.32-.35.45.13c.37.91.59,1.58.83,2.7.67-.72,3.13-2.65,4.93-2.65,2.06,0,2.84.99,3.19,2.57.78-.78,3.08-2.57,4.9-2.57,2.52,0,3.35,1.58,3.35,4.61v9.3l-.37.37Z"/><path class="cls-1" d="m308.75,110.6l-1.31.35-.45-.13c-.24-.72-.59-1.66-.83-2.81-.64.91-3.08,2.76-5.25,2.76-1.5,0-2.87-1.71-2.87-3.91,0-2.76,1.44-3.72,5.06-3.72h2.97v-2.52c0-1.93-.64-2.57-2.28-2.57-2.01,0-3.3.32-4.23.51l-.35-.29v-1.18l.27-.32c1.05-.32,2.55-.54,4.5-.54,2.92,0,4.23,1.21,4.23,4.07v7.02c.27,1.23.51,1.98.8,2.84l-.27.46Zm-2.68-5.87h-3.22c-2.12,0-2.62.59-2.62,2.01,0,1.26.56,2.23,1.1,2.23,1.2,0,3.88-1.5,4.74-2.73v-1.5Z"/><path class="cls-1" d="m314.56,110.49h-1.39l-.37-.37v-19.34l.37-.37h1.39l.37.35v19.37l-.37.37Zm8.38-.35l-1.36.62-.51-.19-5.79-7.5v-.54l6.02-6.32h.51l.89.89.02.62-5.06,5.14,5.36,6.75-.08.54Z"/><path class="cls-1" d="m335.27,102.91l-.27.27h-8.12v.48c0,3.61,1.2,5.25,3.61,5.25,1.31,0,2.76-.27,4.23-.75l.32.19v1.2l-.27.4c-1.39.51-2.65.8-4.42.8-3.3,0-5.73-1.98-5.73-6.83,0-3.85,1.36-7.71,5.78-7.71,2.79,0,4.96,1.82,4.96,4.72,0,.75,0,1.36-.11,1.98Zm-1.93-1.85c0-1.79-1.21-3-3.03-3-2.28,0-3.13,1.69-3.38,3.37h6.4v-.37Z"/><path class="cls-1" d="m345.39,99l-.4.08c-.21-.24-.86-1.04-1.15-1.04-1.21,0-2.17,1.93-2.81,3.3v8.78l-.37.37h-1.39l-.38-.37v-10.45c-.27-1.34-.56-2.12-.8-2.84l.27-.45,1.32-.35.45.13c.27.7.62,1.5.8,2.76l.06-.1c.48-1.02,1.26-2.68,3.27-2.68.4,0,1.26.29,1.85.48l.21.43-.91,1.95Z"/><path class="cls-1" d="m351.18,110.76c-1.63,0-2.7-.16-3.8-.54l-.32-.29v-1.18l.4-.32c1.26.3,2.41.48,3.75.48s2.49-.72,2.49-2.04c0-2.81-6.62-2.09-6.62-6.75,0-2.57,1.9-3.91,4.56-3.91,1.36,0,2.3.16,3.32.59l.27.29v1.18l-.35.32c-1.1-.3-2.01-.54-3.13-.54-1.53,0-2.47.7-2.47,1.93,0,3,6.62,2.33,6.62,6.78,0,2.62-1.96,3.99-4.71,3.99Z"/></svg>