<svg width="92" height="83" viewBox="0 0 92 83" fill="none" xmlns="http://www.w3.org/2000/svg">
    <path d="M61.7206 39.9785L77.3091 30.9785L67.8091 14.524L52.2206 23.524L61.7206 39.9785Z" fill="#EE7838"
        stroke="black" stroke-width="3" stroke-linecap="round" stroke-linejoin="round" />
    <path d="M55.4551 68.8576L18.7471 59.0156L15.3801 71.5736L52.0881 81.4156L55.4551 68.8576Z" fill="#1C5BA7"
        stroke="black" stroke-width="3.00036" stroke-linecap="round" stroke-linejoin="round" />
    <path d="M37.5883 52.1787L60.9709 38.6787L52.9709 24.8223L29.5883 38.3223L37.5883 52.1787Z" fill="#41A46C"
        stroke="black" stroke-width="3" stroke-linecap="round" stroke-linejoin="round" />
    <path d="M90.281 19.447L84.281 9.05469L69.5586 17.5547L75.5586 27.947L90.281 19.447Z" fill="black" stroke="black"
        stroke-width="3" stroke-linecap="round" stroke-linejoin="round" />
    <path d="M2.39695 49.0787L13.0229 51.9277L25.7139 4.59374L15.0879 1.74474L2.39695 49.0787Z" fill="#7B3483"
        stroke="black" stroke-width="3.00036" stroke-linecap="round" stroke-linejoin="round" />
    <path d="M14.8831 50.8542L19.3831 58.6484L35.8375 49.1484L31.3375 41.3542L14.8831 50.8542Z" fill="white"
        stroke="black" stroke-width="3" stroke-linecap="round" stroke-linejoin="round" />
</svg>
