<svg xmlns="http://www.w3.org/2000/svg" width="67" height="67" viewBox="0 0 67 67" fill="none">
    <path d="M25.4034 16.5863L13.5 28.4897L20.5654 35.5552L32.4688 23.6517L25.4034 16.5863Z" fill="#C22C3E" />
    <mask id="mask0_1_504" style="mask-type:luminance" maskUnits="userSpaceOnUse" x="12" y="0" width="55" height="56">
        <path d="M66.732 0.709961H12V55.291H66.732V0.709961Z" fill="white" />
    </mask>
    <g mask="url(#mask0_1_504)">
        <path d="M25.4034 16.5863L13.5 28.4897L20.5654 35.5552L32.4688 23.6517L25.4034 16.5863Z" stroke="#161615"
            stroke-width="3" stroke-linecap="round" stroke-linejoin="round" />
    </g>
    <path d="M45.6521 11.9429L28.241 29.354L39.0859 40.1989L56.497 22.7878L45.6521 11.9429Z" fill="#41A46C" />
    <path d="M45.6521 11.9429L28.241 29.354L39.0859 40.1989L56.497 22.7878L45.6521 11.9429Z" stroke="#161615"
        stroke-width="3" stroke-linecap="round" stroke-linejoin="round" />
    <path d="M15.8914 39.8783L3.98801 51.7817L15.8914 63.6852L27.7949 51.7817L15.8914 39.8783Z" fill="#EE7838" />
    <mask id="mask1_1_504" style="mask-type:luminance" maskUnits="userSpaceOnUse" x="0" y="11" width="55" height="56">
        <path d="M54.732 11.9438H0V66.5248H54.732V11.9438Z" fill="white" />
    </mask>
    <g mask="url(#mask1_1_504)">
        <path d="M15.8914 39.8783L3.98801 51.7817L15.8914 63.6852L27.7949 51.7817L15.8914 39.8783Z" stroke="#161615"
            stroke-width="3" stroke-linecap="round" stroke-linejoin="round" />
    </g>
    <path d="M59.7261 2.20963L47.822 14.1138L53.3289 19.6207L65.2331 7.71658L59.7261 2.20963Z" fill="white" />
    <mask id="mask2_1_504" style="mask-type:luminance" maskUnits="userSpaceOnUse" x="12" y="0" width="55" height="56">
        <path d="M66.732 0.709961H12V55.291H66.732V0.709961Z" fill="white" />
    </mask>
    <g mask="url(#mask2_1_504)">
        <path d="M59.7261 2.21012L47.822 14.1143L53.3289 19.6212L65.2331 7.71706L59.7261 2.21012Z" stroke="#161615"
            stroke-width="3" stroke-linecap="round" stroke-linejoin="round" />
    </g>
    <path d="M44.2589 35.8812L33.414 46.7261L40.4787 53.7908L51.3236 42.9459L44.2589 35.8812Z" fill="#161615" />
    <mask id="mask3_1_504" style="mask-type:luminance" maskUnits="userSpaceOnUse" x="12" y="0" width="55" height="56">
        <path d="M66.732 0.709961H12V55.291H66.732V0.709961Z" fill="white" />
    </mask>
    <g mask="url(#mask3_1_504)">
        <path d="M44.2589 35.8807L33.414 46.7256L40.4787 53.7903L51.3236 42.9454L44.2589 35.8807Z" stroke="#161615"
            stroke-width="3" stroke-linecap="round" stroke-linejoin="round" />
    </g>
</svg>
